<svg id="Outline" height="512" viewBox="0 0 64 64" width="512" xmlns="http://www.w3.org/2000/svg"><path d="m31 19v-6a1 1 0 0 0 -2 0v3h-2v-3a1 1 0 0 0 -2 0v3h-2v-3a1 1 0 0 0 -2 0v6a5 5 0 0 0 2.88 4.51l-.72 9.42a2.85 2.85 0 1 0 5.68 0l-.72-9.42a5 5 0 0 0 2.88-4.51zm-2 0a3 3 0 0 1 -2.2 2.88 1 1 0 0 0 -.73 1l.78 10.16a.86.86 0 0 1 -.22.65.89.89 0 0 1 -1.26 0 .86.86 0 0 1 -.22-.65l.78-10.16a1 1 0 0 0 -.73-1 3 3 0 0 1 -2.2-2.88v-1h6z"/><path d="m44 19v-2a5 5 0 0 0 -10 0v2a5 5 0 0 0 2.88 4.51l-.72 9.42a2.85 2.85 0 1 0 5.68 0l-.72-9.42a5 5 0 0 0 2.88-4.51zm-2 0a3 3 0 0 1 -2.2 2.88 1 1 0 0 0 -.73 1l.78 10.16a.86.86 0 0 1 -.22.65.89.89 0 0 1 -1.26 0 .86.86 0 0 1 -.22-.65l.78-10.16a1 1 0 0 0 -.73-1 3 3 0 0 1 -2.2-2.88v-2a3 3 0 0 1 6 0z"/><path d="m9 20a1 1 0 0 0 1-1v-9h44v6a1 1 0 0 0 2 0v-7a1 1 0 0 0 -1-1h-46a1 1 0 0 0 -1 1v10a1 1 0 0 0 1 1z"/><circle cx="50" cy="14" r="1"/><circle cx="50" cy="18" r="1"/><circle cx="50" cy="22" r="1"/><circle cx="50" cy="26" r="1"/><circle cx="50" cy="30" r="1"/><circle cx="50" cy="34" r="1"/><circle cx="14" cy="14" r="1"/><circle cx="14" cy="18" r="1"/><circle cx="14" cy="22" r="1"/><circle cx="14" cy="26" r="1"/><circle cx="14" cy="30" r="1"/><circle cx="14" cy="34" r="1"/><path d="m61.32 27.05-5.32-1.77v-5.28a1 1 0 0 0 -2 0v18h-44v-15a1 1 0 0 0 -2 0v2.28l-5.32 1.77a1 1 0 0 0 -.68.95v33a1 1 0 0 0 1 1h58a1 1 0 0 0 1-1v-33a1 1 0 0 0 -.68-.95zm-1.32 1.67v2.28h-4v-3.61zm-56 0 4-1.33v3.61h-4zm29 31.28v-13a1 1 0 0 0 -2 0v13h-6v-9a7 7 0 0 1 14 0v9zm27 0h-19v-9a9 9 0 0 0 -18 0v9h-19v-27h4v6a1 1 0 0 0 1 1h46a1 1 0 0 0 1-1v-6h4z"/><path d="m48 54v-5a3 3 0 0 1 6 0v2a1 1 0 0 0 2 0v-2a5 5 0 0 0 -10 0v5h-1a1 1 0 0 0 0 2h12a1 1 0 0 0 0-2z"/><path d="m19 54h-9v-5a3 3 0 0 1 6 0v2a1 1 0 0 0 2 0v-2a5 5 0 0 0 -10 0v5h-1a1 1 0 0 0 0 2h12a1 1 0 0 0 0-2z"/></svg>